<svg xmlns="http://www.w3.org/2000/svg" xmlns:xlink="http://www.w3.org/1999/xlink" x="0"
                                   width="226" height="226" y="0" viewBox="0, 0, 500, 500">
                                    <defs>
                                        <linearGradient id="Gradient_1" gradientUnits="userSpaceOnUse" x1="9.922"
                                            y1="69.259" x2="45.792" y2="69.259"
                                            gradientTransform="matrix(3, 0, 0, 3, 0, 0)">
                                            <stop offset="0" stop-color="#00A3DA" />
                                            <stop offset="0.125" stop-color="#00A2D9" />
                                            <stop offset="0.25" stop-color="#009CD4" />
                                            <stop offset="0.375" stop-color="#0092CB" />
                                            <stop offset="0.5" stop-color="#0087C2" />
                                            <stop offset="0.625" stop-color="#0078B4" />
                                            <stop offset="0.75" stop-color="#0063A2" />
                                            <stop offset="0.875" stop-color="#0A4A8E" />
                                            <stop offset="1" stop-color="#292D78" />
                                        </linearGradient>
                                    </defs>
                                    <g id="Layer_1">
                                        <g>
                                            <path
                                                d="M194.459,203.092 C191.35,204.655 188.628,204.981 186.272,204.981 C178.107,204.981 174.383,199.674 177.7,191.532 C181.165,183.026 189.655,178.083 197.113,178.083 C199.546,178.083 202.096,178.665 203.821,180.119 L200.814,187.498 C200.023,185.97 198.486,184.444 195.542,184.444 C191.304,184.444 187.242,187.57 185.539,191.751 C183.968,195.604 185.371,198.62 189.767,198.62 C192.633,198.62 195.447,197.203 197.408,195.858 z"
                                                fill="#D8232A" />
                                            <path
                                                d="M223.387,191.532 C225.385,186.625 223.122,184.189 219.551,184.189 C215.978,184.189 211.727,186.625 209.728,191.532 C207.728,196.439 209.995,198.875 213.566,198.875 C217.137,198.875 221.387,196.439 223.387,191.532 M201.801,191.532 C204.57,184.735 211.99,178.083 222.038,178.083 C232.085,178.083 234.085,184.735 231.314,191.532 C228.547,198.329 221.126,204.981 211.077,204.981 C201.03,204.981 199.03,198.329 201.801,191.532"
                                                fill="#D8232A" />
                                            <path
                                                d="M267.035,191.532 C269.033,186.625 266.768,184.189 263.195,184.189 C259.623,184.189 255.373,186.625 253.374,191.532 C251.374,196.439 253.641,198.875 257.212,198.875 C260.785,198.875 265.035,196.439 267.035,191.532 M246.934,188.552 C250.078,182.954 256.734,178.083 265.684,178.083 C275.73,178.083 277.716,184.772 274.962,191.532 C272.162,198.402 264.772,204.981 254.725,204.981 C247.187,204.981 242.576,200.692 244.615,194.149 L241.672,194.149 L237.555,204.255 L229.86,204.255 L240.228,178.81 L247.92,178.81 L243.952,188.552 z"
                                                fill="#D8232A" />
                                            <path
                                                d="M282.422,180.446 C284.038,179.755 288.056,178.083 292.649,178.083 C298.809,178.083 302.007,181.027 300.272,185.28 C299.236,187.824 296.563,190.151 293.421,191.022 L293.376,191.133 C295.346,191.787 297.574,193.35 296.004,197.203 C294.036,202.038 288.008,204.981 281.806,204.981 C277.92,204.981 275.689,204.291 272.553,201.2 L277.658,196.476 C278.924,198.184 281.065,199.384 283.144,199.384 C286.443,199.384 287.9,197.639 288.329,196.584 C288.936,195.094 288.272,193.93 284.973,193.93 L280.617,193.93 L282.69,188.842 L287.047,188.842 C290.54,188.842 291.738,187.352 292.196,186.225 C292.847,184.625 291.661,183.681 289.307,183.681 C287.071,183.681 285.164,184.408 283.062,185.426 z"
                                                fill="#D8232A" />
                                            <path
                                                d="M166.331,222.422 L174.024,222.422 L169.669,233.109 L182.306,222.422 L191.334,222.422 L175.873,234.743 L181.24,247.868 L171.624,247.868 L168.113,236.926 L163.658,247.868 L155.964,247.868 z"
                                                fill="#D8232A" />
                                            <path
                                                d="M208.994,235.145 C210.992,230.238 208.727,227.802 205.156,227.802 C201.583,227.802 197.332,230.238 195.333,235.145 C193.335,240.053 195.6,242.486 199.171,242.486 C202.744,242.486 206.995,240.053 208.994,235.145 M187.406,235.145 C190.175,228.346 197.596,221.695 207.643,221.695 C217.692,221.695 219.691,228.346 216.921,235.145 C214.152,241.942 206.731,248.594 196.684,248.594 C186.637,248.594 184.637,241.942 187.406,235.145"
                                                fill="#D8232A" />
                                            <path
                                                d="M225.833,222.422 L233.526,222.422 L229.796,231.583 L239.135,231.583 L242.868,222.422 L250.56,222.422 L240.194,247.868 L232.5,247.868 L236.648,237.691 L227.307,237.691 L223.16,247.868 L215.465,247.868 z"
                                                fill="#D8232A" />
                                            <path
                                                d="M258.203,242.779 C260.599,242.779 262.317,242.124 263.146,240.088 C263.96,238.088 262.814,237.436 260.38,237.436 L257.083,237.436 L254.906,242.779 z M255.506,222.422 L263.2,222.422 L259.158,232.346 L263.2,232.346 C267.125,232.346 273.698,233.073 270.839,240.088 C267.966,247.14 260.762,247.868 256.876,247.868 L245.14,247.868 z"
                                                fill="#D8232A" />
                                            <path
                                                d="M281.606,222.422 L289.301,222.422 L284.948,233.109 L297.583,222.422 L306.609,222.422 L291.15,234.743 L296.518,247.868 L286.901,247.868 L283.392,236.926 L278.933,247.868 L271.241,247.868 z"
                                                fill="#D8232A" />
                                            <path
                                                d="M324.271,235.145 C326.267,230.238 324.005,227.802 320.433,227.802 C316.86,227.802 312.609,230.238 310.612,235.145 C308.612,240.053 310.879,242.486 314.448,242.486 C318.019,242.486 322.271,240.053 324.271,235.145 M302.683,235.145 C305.453,228.346 312.873,221.695 322.921,221.695 C332.967,221.695 334.967,228.346 332.197,235.145 C329.431,241.942 322.008,248.594 311.961,248.594 C301.912,248.594 299.912,241.942 302.683,235.145"
                                                fill="#D8232A" />
                                            <path
                                                d="M343.807,242.779 C346.202,242.779 347.921,242.124 348.749,240.088 C349.563,238.088 348.419,237.436 345.986,237.436 L342.685,237.436 L340.509,242.779 z M341.111,222.422 L361.401,222.422 L358.916,228.528 L346.316,228.528 L344.761,232.346 L348.803,232.346 C350.883,232.346 359.613,232.309 356.489,239.98 C353.243,247.939 344.481,247.868 342.481,247.868 L330.742,247.868 z"
                                                fill="#D8232A" />
                                            <path
                                                d="M367.211,222.422 L383.695,222.422 L381.21,228.528 L372.417,228.528 L370.965,232.091 L378.931,232.091 L376.651,237.691 L368.683,237.691 L367.026,241.761 L375.819,241.761 L373.33,247.868 L356.846,247.868 z"
                                                fill="#D8232A" />
                                            <path
                                                d="M396.143,236.671 L384.162,247.868 L374.703,247.868 L389.999,234.89 L385.895,222.422 L394.647,222.422 L397.445,233.472 L401.949,222.422 L409.641,222.422 L405.138,233.472 L416.94,222.422 L425.695,222.422 L411.43,234.89 L416.152,247.868 L406.692,247.868 L403.835,236.671 L399.273,247.868 L391.581,247.868 z"
                                                fill="#D8232A" />
                                            <path
                                                d="M428.716,222.422 L436.408,222.422 L428.529,241.761 L437.597,241.761 L445.477,222.422 L453.169,222.422 L445.289,241.761 L448.586,241.761 L444.024,252.956 L437.431,252.956 L439.504,247.868 L418.348,247.868 z"
                                                fill="#D8232A" />
                                            <path
                                                d="M459.212,222.422 L475.697,222.422 L473.211,228.528 L464.418,228.528 L462.966,232.091 L470.932,232.091 L468.655,237.691 L460.684,237.691 L459.027,241.761 L467.82,241.761 L465.331,247.868 L448.847,247.868 z"
                                                fill="#D8232A" />
                                            <path
                                                d="M486.642,232.456 C489.666,232.456 490.767,231 491.154,230.055 C491.701,228.711 491.286,227.513 488.657,227.513 L485.438,227.513 L483.423,232.456 z M482.75,242.779 C483.927,242.779 486.888,242.741 487.969,240.088 C489.004,237.544 486.141,237.544 484.885,237.544 L481.351,237.544 L479.219,242.779 z M493.124,222.422 C500.582,222.422 499.492,226.93 498.693,228.892 C497.596,231.583 494.785,233.472 492.252,234.199 L492.223,234.273 C493.865,234.671 497.277,236.125 495.379,240.779 C493.929,244.342 489.862,247.868 483.503,247.868 L469.451,247.868 L479.819,222.422 z"
                                                fill="#D8232A" />
                                            <path
                                                d="M151.59,277.485 L153.787,277.485 C157.202,277.485 158.31,275.631 158.756,274.543 C159.274,273.268 159.469,271.634 156.171,271.634 L153.975,271.634 z M148.56,266.036 L160.141,266.036 C167.951,266.036 168.104,271.053 166.683,274.543 C165.247,278.067 160.967,283.083 153.195,283.083 L149.308,283.083 L145.887,291.481 L138.195,291.481 z"
                                                fill="#D8232A" />
                                            <path
                                                d="M188.908,278.758 C190.906,273.852 188.643,271.415 185.07,271.415 C181.498,271.415 177.249,273.852 175.249,278.758 C173.249,283.666 175.516,286.103 179.089,286.103 C182.656,286.103 186.908,283.666 188.908,278.758 M167.32,278.758 C170.091,271.96 177.51,265.308 187.559,265.308 C197.606,265.308 199.606,271.96 196.835,278.758 C194.068,285.555 186.647,292.207 176.598,292.207 C166.55,292.207 164.55,285.555 167.32,278.758"
                                                fill="#D8232A" />
                                            <path
                                                d="M216.109,290.318 C212.999,291.879 210.274,292.207 207.92,292.207 C199.757,292.207 196.03,286.902 199.348,278.758 C202.814,270.254 211.305,265.308 218.762,265.308 C221.195,265.308 223.745,265.89 225.468,267.345 L222.462,274.724 C221.67,273.195 220.132,271.67 217.191,271.67 C212.95,271.67 208.892,274.797 207.189,278.976 C205.619,282.828 207.018,285.848 211.415,285.848 C214.28,285.848 217.095,284.428 219.056,283.083 z"
                                                fill="#D8232A" />
                                            <path
                                                d="M240.207,290.318 C237.098,291.879 234.374,292.207 232.019,292.207 C223.855,292.207 220.129,286.902 223.447,278.758 C226.913,270.254 235.403,265.308 242.861,265.308 C245.294,265.308 247.844,265.89 249.568,267.345 L246.561,274.724 C245.771,273.195 244.234,271.67 241.29,271.67 C237.052,271.67 232.99,274.797 231.287,278.976 C229.716,282.828 231.12,285.848 235.514,285.848 C238.38,285.848 241.194,284.428 243.156,283.083 z"
                                                fill="#D8232A" />
                                            <path
                                                d="M261.365,266.036 L255.146,281.304 L272.003,266.036 L279.537,266.036 L269.171,291.481 L261.753,291.481 L267.975,276.214 L251.117,291.481 L243.58,291.481 L253.947,266.036 z"
                                                fill="#D8232A" />
                                            <path
                                                d="M291.901,266.036 L285.682,281.304 L302.539,266.036 L310.077,266.036 L299.708,291.481 L292.289,291.481 L298.511,276.214 L281.654,291.481 L274.117,291.481 L284.483,266.036 z"
                                                fill="#D8232A" />
                                            <path
                                                d="M133.249,309.81 L133.402,318.685 L141.15,309.167 L141.018,318.685 L148.524,309.81 L150.9,309.81 L138.742,323.917 L138.839,314.534 L131.23,323.917 L130.874,309.81 z"
                                                fill="#D8232A" />
                                            <path
                                                d="M153.438,309.81 L153.591,318.685 L161.339,309.167 L161.207,318.685 L168.713,309.81 L171.088,309.81 L158.931,323.917 L159.028,314.534 L151.419,323.917 L151.063,309.81 z"
                                                fill="#D8232A" />
                                            <path
                                                d="M173.627,309.81 L173.78,318.685 L181.526,309.167 L181.396,318.685 L188.9,309.81 L191.275,309.81 L179.12,323.917 L179.216,314.534 L171.606,323.917 L171.252,309.81 z"
                                                fill="#D8232A" />
                                            <path
                                                d="M187.784,320.847 C188.523,320.847 188.905,321.413 188.628,322.1 C188.349,322.782 187.503,323.349 186.766,323.349 C186.027,323.349 185.647,322.782 185.923,322.1 C186.202,321.413 187.048,320.847 187.784,320.847"
                                                fill="#D8232A" />
                                            <path
                                                d="M196.312,315.898 L196.987,315.898 C197.581,315.898 199.952,315.859 200.817,313.736 C201.589,311.84 199.801,311.708 198.757,311.708 L198.02,311.708 z M199.14,309.81 C200.308,309.81 201.724,309.849 202.612,310.59 C203.636,311.441 203.39,312.844 203.036,313.717 C202.264,315.613 200.381,317.016 198.335,317.415 L200.51,323.083 L197.847,323.083 L195.97,317.643 L195.602,317.643 L193.384,323.083 L191.172,323.083 L196.581,309.81 z"
                                                fill="#D8232A" />
                                            <path
                                                d="M210.176,309.81 L206.916,317.812 C206.623,318.534 206.288,319.406 206.412,320.108 C206.547,320.829 207.195,321.452 208.524,321.452 C209.631,321.452 210.824,321.037 211.735,320.108 C212.439,319.385 212.791,318.571 213.1,317.812 L216.359,309.81 L218.57,309.81 L215.094,318.343 C214.662,319.406 213.899,320.676 212.358,321.794 C211.283,322.571 209.718,323.349 207.752,323.349 C205.785,323.349 204.854,322.571 204.412,321.794 C203.784,320.676 204.055,319.406 204.489,318.343 L207.965,309.81 z"
                                                fill="#D8232A" />
                                            <path
                                                d="M226.893,312.75 C226.875,312.446 226.785,312.162 226.58,311.916 C226.276,311.555 225.872,311.441 225.277,311.441 C224.13,311.441 223,312.009 222.589,313.017 C222.21,313.945 222.885,314.399 223.46,314.648 L224.678,315.177 C225.88,315.69 227.459,316.694 226.478,319.102 C225.457,321.604 222.801,323.349 220.099,323.349 C218.707,323.349 217.758,322.913 217.269,322.003 C216.986,321.49 216.759,320.638 217.111,319.423 L219.459,318.989 C219.216,319.634 219.207,320.258 219.386,320.676 C219.643,321.302 220.176,321.452 220.912,321.452 C222.57,321.452 223.754,320.354 224.211,319.235 C224.753,317.907 223.816,317.339 223.065,316.977 L221.916,316.427 C220.7,315.843 219.597,314.931 220.356,313.072 C221.228,310.928 223.757,309.546 225.989,309.546 C227.484,309.546 228.129,310.021 228.484,310.455 C228.703,310.721 228.956,311.158 229.043,311.801 z"
                                                fill="#D8232A" />
                                            <path
                                                d="M237.932,312.75 C237.912,312.446 237.821,312.162 237.617,311.916 C237.311,311.555 236.908,311.441 236.313,311.441 C235.169,311.441 234.035,312.009 233.625,313.017 C233.247,313.945 233.921,314.399 234.497,314.648 L235.713,315.177 C236.918,315.69 238.494,316.694 237.513,319.102 C236.494,321.604 233.837,323.349 231.134,323.349 C229.743,323.349 228.794,322.913 228.306,322.003 C228.022,321.49 227.796,320.638 228.147,319.423 L230.496,318.989 C230.253,319.634 230.244,320.258 230.422,320.676 C230.68,321.302 231.211,321.452 231.947,321.452 C233.608,321.452 234.792,320.354 235.247,319.235 C235.789,317.907 234.852,317.339 234.1,316.977 L232.951,316.427 C231.737,315.843 230.632,314.931 231.391,313.072 C232.263,310.928 234.794,309.546 237.025,309.546 C238.521,309.546 239.167,310.021 239.521,310.455 C239.741,310.721 239.993,311.158 240.078,311.801 z"
                                                fill="#D8232A" />
                                            <path
                                                d="M243.976,315.102 L251.659,309.81 L254.526,309.81 L245.607,315.822 L249.159,323.083 L246.25,323.083 L243.318,316.712 L240.723,323.083 L238.512,323.083 L243.921,309.81 L246.13,309.81 z"
                                                fill="#D8232A" />
                                            <path
                                                d="M260.704,317.965 L260.398,313.49 L256.364,317.965 z M260.792,319.859 L254.71,319.859 L251.82,323.083 L249.445,323.083 L262.288,309.051 L263.368,323.083 L260.993,323.083 z"
                                                fill="#D8232A" />
                                            <path
                                                d="M273.778,311.708 L269.142,323.083 L266.931,323.083 L271.567,311.708 L268.289,311.708 L269.063,309.81 L277.827,309.81 L277.053,311.708 z"
                                                fill="#D8232A" />
                                            <path
                                                d="M281.881,309.81 L276.472,323.083 L274.262,323.083 L279.668,309.81 z"
                                                fill="#D8232A" />
                                            <path
                                                d="M279.747,323.083 L285.513,308.938 L291.776,318.989 L295.517,309.81 L297.728,309.81 L291.995,323.88 L285.729,313.831 L281.96,323.083 z"
                                                fill="#D8232A" />
                                            <path
                                                d="M305.859,316.181 L311.757,316.181 L311.586,316.601 C311.063,317.889 310.295,319.367 308.568,320.847 C307.408,321.833 305.171,323.349 302.161,323.349 C299.869,323.349 298.557,322.553 297.79,321.413 C296.809,319.956 296.917,318.228 297.638,316.466 C298.355,314.703 299.708,312.94 301.678,311.576 C304.05,309.924 306.314,309.546 307.909,309.546 C310.059,309.546 311.183,310.305 311.754,310.814 C312.219,311.233 312.544,311.687 312.744,312.258 L310.63,313.622 C310.427,313.017 309.736,311.441 307.137,311.441 C304.105,311.441 301.104,313.585 299.93,316.466 C298.733,319.406 300.211,321.452 302.996,321.452 C305.269,321.452 307.515,320.012 308.649,318.079 L305.089,318.079 z"
                                                fill="#D8232A" />
                                            <path
                                                d="M313.502,320.847 C314.24,320.847 314.624,321.413 314.345,322.1 C314.067,322.782 313.22,323.349 312.483,323.349 C311.745,323.349 311.364,322.782 311.642,322.1 C311.921,321.413 312.765,320.847 313.502,320.847"
                                                fill="#D8232A" />
                                            <path
                                                d="M322.031,315.898 L322.704,315.898 C323.299,315.898 325.671,315.859 326.534,313.736 C327.308,311.84 325.518,311.708 324.473,311.708 L323.738,311.708 z M324.857,309.81 C326.025,309.81 327.443,309.849 328.329,310.59 C329.354,311.441 329.108,312.844 328.755,313.717 C327.981,315.613 326.098,317.016 324.055,317.415 L326.227,323.083 L323.566,323.083 L321.689,317.643 L321.32,317.643 L319.103,323.083 L316.889,323.083 L322.298,309.81 z"
                                                fill="#D8232A" />
                                            <path
                                                d="M335.895,309.81 L332.633,317.812 C332.34,318.534 332.006,319.406 332.129,320.108 C332.264,320.829 332.912,321.452 334.241,321.452 C335.348,321.452 336.543,321.037 337.453,320.108 C338.156,319.385 338.506,318.571 338.817,317.812 L342.076,309.81 L344.29,309.81 L340.811,318.343 C340.377,319.406 339.617,320.676 338.076,321.794 C337.001,322.571 335.436,323.349 333.471,323.349 C331.504,323.349 330.571,322.571 330.129,321.794 C329.504,320.676 329.772,319.406 330.206,318.343 L333.682,309.81 z"
                                                fill="#D8232A" />
                                        </g>
                                        <path d="M29.765,186.5 L137.377,199.65 L125.397,229.054 L29.765,186.5 z"
                                            fill="url(#Gradient_1)" />
                                        <g>
                                            <path d="M123.332,234.033 L12.83,284.389 L86.984,217.756 z"
                                                fill="#D8232A" />
                                            <path d="M120.403,241.224 L108.321,270.877 L100.748,250.056 z"
                                                fill="#D8232A" />
                                            <path d="M104.401,275.673 L100.748,265.551 L82.404,284.389 z"
                                                fill="#D8232A" />
                                            <path d="M92.538,291.604 L70.312,291.604 L71.709,287.996 L93.937,287.996 z"
                                                fill="#D8232A" />
                                            <path d="M22.964,291.604 L0.738,291.604 L2.134,287.996 L24.363,287.996 z"
                                                fill="#D8232A" />
                                            <path d="M106.765,178.716 L145.87,178.716 L139.43,194.529 z"
                                                fill="#C6C7C6" />
                                        </g>
                                    </g>
                                </svg>