<svg xmlns="http://www.w3.org/2000/svg">
  <symbol id="star-icon" viewBox="0 0 33 31">
  <path d="M9.07017 31L6.56141 29.4103L13.8947 16.9904H0V14.0096H13.8947L6.56141 1.58975L9.07017 0L16.5 13.1154L23.9298 0L26.4386 1.58975L19.1053 14.0096H33V16.9904H19.1053L26.4386 29.4103L23.9298 31L16.5 17.8846L9.07017 31Z" fill="#20242F"/></symbol>

  <symbol id="tg-icon" viewBox="4 7 39 33">
  <path d="M40.83,8.48c1.14,0,2,1,1.54,2.86l-5.58,26.3c-.39,1.87-1.52,2.32-3.08,1.45L20.4,29.26a.4.4,0,0,1,0-.65L35.77,14.73c.7-.62-.15-.92-1.07-.36L15.41,26.54a.46.46,0,0,1-.4.05L6.82,24C5,23.47,5,22.22,7.23,21.33L40,8.69a2.16,2.16,0,0,1,.83-.21Z" fill="none"   stroke="#20242F" stroke-width="1"/></symbol>

  <symbol id="star-icon-footer" viewBox="0 0 44 41">
  <path d="M12.0936 40.1176L8.74854 38.0603L18.5263 21.9876H0V18.1301H18.5263L8.74854 2.05732L12.0936 0L22 16.9729L31.9064 0L35.2515 2.05732L25.4737 18.1301H44V21.9876H25.4737L35.2515 38.0603L31.9064 40.1176L22 23.1448L12.0936 40.1176Z" fill="#20242F"/></symbol>
</svg>