<?xml version="1.0" standalone="no"?>
<!DOCTYPE svg PUBLIC "-//W3C//DTD SVG 20010904//EN"
 "http://www.w3.org/TR/2001/REC-SVG-20010904/DTD/svg10.dtd">
<svg version="1.0" xmlns="http://www.w3.org/2000/svg"
 width="476.000000pt" height="449.000000pt" viewBox="0 0 476.000000 449.000000"
 preserveAspectRatio="xMidYMid meet">

<g transform="translate(0.000000,449.000000) scale(0.100000,-0.100000)"
fill="#000000" stroke="none">
<path d="M380 4398 c-14 -8 -37 -38 -53 -71 -25 -53 -26 -60 -13 -86 8 -15 51
-51 95 -80 77 -51 130 -104 275 -276 89 -105 165 -182 227 -230 69 -54 112
-132 165 -296 62 -192 136 -317 309 -515 95 -110 161 -220 172 -289 3 -18 -2
-66 -11 -107 -44 -200 -58 -401 -35 -524 6 -32 28 -97 50 -142 49 -103 66
-175 74 -312 14 -236 33 -297 169 -543 134 -242 158 -350 116 -525 -11 -46
-20 -90 -20 -98 0 -28 47 -64 84 -64 30 0 37 -4 42 -27 5 -17 3 -28 -4 -31
-15 -5 -16 -98 -1 -108 10 -6 107 54 129 81 6 8 13 30 15 50 2 28 0 35 -11 31
-22 -9 -17 6 18 49 l33 39 0 117 0 117 -37 53 c-47 69 -54 107 -68 364 -7 116
-18 237 -25 270 -8 33 -36 103 -63 155 -62 120 -73 181 -43 242 20 42 166 235
219 291 22 23 34 27 79 27 71 0 98 -12 237 -109 65 -45 197 -129 293 -187 97
-58 208 -132 247 -163 39 -31 107 -74 150 -96 58 -29 104 -64 170 -127 87 -83
145 -126 283 -207 35 -20 101 -63 147 -96 69 -48 88 -67 101 -101 19 -50 55
-89 108 -115 44 -23 194 -162 179 -167 -5 -1 -40 4 -77 13 -38 8 -70 14 -72
12 -2 -2 5 -11 14 -20 18 -15 424 -147 456 -147 9 0 17 7 17 16 0 29 -20 52
-56 64 -27 9 -34 16 -28 29 16 35 16 103 -1 146 -18 50 -105 121 -235 195 -41
23 -88 55 -105 70 -16 15 -45 36 -63 46 -19 10 -86 82 -150 159 -64 77 -160
183 -212 236 -79 80 -110 104 -188 144 -108 55 -143 91 -237 242 -108 173
-171 246 -484 561 l-302 304 7 36 c4 20 8 91 8 157 1 107 -2 125 -23 168 -13
26 -37 58 -53 72 -42 35 -182 101 -264 123 l-69 19 -6 74 c-14 164 -82 243
-223 256 -77 7 -140 -17 -180 -70 -31 -41 -56 -114 -56 -164 0 -38 0 -38 -58
-18 -68 24 -80 35 -129 120 -99 170 -235 360 -312 434 -20 19 -115 93 -211
164 -207 154 -256 199 -271 246 -24 79 -31 90 -70 105 -57 23 -139 30 -169 14z
m1573 -924 c32 -32 57 -103 57 -164 0 -39 -5 -51 -32 -77 -40 -37 -69 -53 -99
-53 -21 0 -21 2 -16 108 9 199 31 245 90 186z m183 -305 c139 -43 239 -104
269 -164 31 -62 28 -173 -7 -247 -38 -82 -94 -163 -162 -236 -77 -82 -210
-182 -242 -182 -78 0 -204 125 -517 515 -53 66 -117 144 -143 173 -26 29 -45
55 -42 58 10 9 154 -95 245 -179 51 -47 171 -144 266 -215 95 -72 179 -138
186 -146 8 -9 17 -16 21 -16 11 0 252 276 277 318 25 41 30 109 12 145 -23 45
-64 77 -135 107 -40 16 -79 30 -88 30 -20 0 -29 16 -21 40 8 24 -1 24 81 -1z
m-171 -115 c-17 -58 -77 -134 -105 -134 -15 0 -8 46 16 96 16 34 92 110 101
101 3 -3 -3 -32 -12 -63z m-215 -702 c47 -57 55 -99 30 -171 -11 -34 -32 -87
-46 -118 -15 -32 -41 -103 -59 -158 l-33 -100 -20 45 c-49 110 -53 259 -12
460 31 155 25 146 71 109 21 -17 52 -47 69 -67z m87 -1023 c22 -51 51 -171 83
-349 17 -96 34 -186 36 -200 8 -39 -29 33 -108 210 -80 179 -107 272 -115 390
l-6 85 49 -54 c27 -29 55 -66 61 -82z m2485 -568 c58 -52 70 -72 70 -118 0
-57 -49 -91 -92 -63 -12 7 -12 14 -2 43 7 18 12 44 12 58 0 25 -34 84 -79 133
l-26 29 34 -19 c18 -10 56 -39 83 -63z m-2299 -380 c15 -22 40 -45 57 -52 37
-17 21 -29 -41 -29 -34 0 -49 5 -53 16 -9 22 -7 104 2 104 4 0 19 -18 35 -39z"/>
</g>
</svg>
